<?xml version="1.0" standalone="no"?>
<!DOCTYPE svg PUBLIC "-//W3C//DTD SVG 20010904//EN"
 "http://www.w3.org/TR/2001/REC-SVG-20010904/DTD/svg10.dtd">
<svg version="1.0" xmlns="http://www.w3.org/2000/svg"
 width="1080.000000pt" height="1080.000000pt" viewBox="0 0 1080.000000 1080.000000"
 preserveAspectRatio="xMidYMid meet">
<metadata>
Created by potrace 1.14, written by Peter Selinger 2001-2017
</metadata>
<g transform="translate(0.000000,1080.000000) scale(0.100000,-0.100000)"
fill="#000000" stroke="none">
<path d="M5150 10762 c-34 -35 -37 -56 -45 -352 -3 -118 -10 -269 -16 -335 -5
-66 -12 -195 -16 -287 -5 -144 -4 -170 10 -192 19 -28 64 -41 113 -32 54 11
66 46 75 216 8 168 26 240 71 282 52 48 126 34 176 -35 42 -60 96 -142 119
-182 12 -22 29 -51 37 -65 45 -79 127 -188 156 -207 43 -29 110 -31 134 -4 10
11 20 38 23 60 5 37 1 47 -65 138 -38 54 -93 136 -122 183 -28 47 -67 110 -86
140 -40 65 -49 102 -40 174 9 66 44 114 195 264 87 87 104 109 108 141 5 33 1
41 -28 65 -29 24 -39 28 -81 24 -47 -5 -53 -9 -202 -156 -113 -112 -167 -158
-207 -177 -65 -30 -102 -32 -129 -5 -23 23 -22 16 -20 177 2 158 -15 192 -93
193 -29 0 -45 -7 -67 -28z"/>
<path d="M4493 10730 c-54 -33 -54 -54 2 -290 31 -131 36 -180 24 -219 -21
-67 -57 -77 -129 -36 -25 14 -70 38 -100 52 -65 31 -203 122 -315 207 -114 87
-130 96 -170 96 -43 0 -90 -23 -105 -49 -16 -31 -12 -71 24 -223 19 -79 46
-195 60 -258 14 -63 41 -173 60 -245 18 -71 44 -177 55 -235 27 -134 36 -156
71 -170 57 -24 150 24 150 77 0 28 -44 218 -91 396 -37 136 -38 189 -4 222 19
20 34 25 72 25 40 0 72 -12 191 -73 227 -116 337 -220 398 -374 24 -62 36 -80
57 -87 31 -11 94 5 128 33 30 24 29 73 -4 178 -14 43 -28 101 -32 128 -4 28
-13 70 -21 95 -25 80 -84 322 -110 450 -42 208 -63 278 -91 300 -33 25 -79 25
-120 0z"/>
<path d="M6414 10716 c-63 -28 -60 -56 41 -430 39 -147 75 -314 75 -353 0 -18
-11 -68 -24 -111 -101 -323 -102 -333 -60 -376 21 -20 37 -26 70 -26 23 0 50
3 59 6 21 9 41 49 50 104 9 51 84 262 118 330 24 50 78 106 182 193 118 97
333 311 345 341 15 40 -2 78 -44 101 -28 15 -38 16 -69 6 -44 -15 -135 -88
-264 -212 -51 -49 -104 -91 -118 -95 -15 -4 -39 1 -62 13 -34 16 -41 27 -65
93 -14 41 -29 98 -33 125 -9 63 -48 202 -71 250 -25 53 -70 67 -130 41z"/>
<path d="M3190 10272 c-63 -32 -252 -133 -403 -215 -128 -70 -152 -87 -168
-119 -35 -69 -28 -102 71 -295 50 -97 94 -181 100 -188 5 -6 56 -100 114 -208
58 -108 117 -212 131 -231 31 -41 80 -66 129 -66 38 0 174 62 231 105 16 13
107 64 201 114 94 50 180 101 190 112 13 14 19 36 19 66 0 37 -5 49 -28 69
-38 33 -80 30 -147 -7 -30 -18 -86 -47 -125 -66 -38 -19 -101 -53 -140 -76
-130 -76 -209 -69 -260 24 -21 39 -26 58 -21 84 7 38 27 56 145 135 50 34 84
64 87 78 16 62 -29 135 -83 135 -16 0 -60 -18 -100 -40 -135 -77 -169 -79
-234 -14 -48 48 -66 109 -47 160 17 45 70 81 288 195 189 100 225 130 216 185
-11 72 -89 101 -166 63z"/>
<path d="M7816 10193 c-51 -13 -147 -91 -422 -342 -245 -224 -471 -446 -479
-472 -14 -43 39 -97 103 -106 35 -5 42 -1 129 81 120 114 170 134 247 102 36
-15 212 -190 235 -234 17 -33 17 -124 0 -192 -9 -34 -10 -59 -3 -77 13 -37 69
-73 114 -73 57 0 78 30 95 136 7 49 31 184 53 299 64 329 84 478 90 642 5 174
1 188 -68 223 -39 20 -57 22 -94 13z m-55 -355 c14 -25 9 -85 -21 -248 -26
-149 -46 -165 -127 -104 -55 42 -93 106 -93 159 0 42 5 51 53 102 100 107 163
137 188 91z"/>
<path d="M5585 8714 c-217 -62 -366 -110 -436 -141 l-107 -48 -36 -73 c-32
-65 -36 -80 -36 -155 0 -69 6 -99 37 -189 37 -106 37 -106 84 -129 45 -21 49
-25 54 -68 3 -25 8 -63 11 -83 3 -21 3 -38 -1 -38 -4 0 -30 20 -59 44 -32 28
-83 57 -131 76 l-80 31 -103 -108 -104 -107 -73 3 -74 3 -205 -98 -204 -97
-12 -64 c-10 -51 -10 -95 0 -210 10 -113 10 -147 1 -153 -7 -4 -48 -15 -92
-25 -44 -10 -82 -21 -83 -24 -2 -3 7 -64 20 -136 22 -120 23 -133 9 -167 -8
-21 -11 -38 -7 -38 4 0 504 118 1112 262 l1105 261 59 53 c64 58 189 127 306
169 66 23 80 25 119 15 24 -6 61 -20 82 -30 l38 -20 -39 113 c-21 61 -88 260
-150 441 l-111 329 -192 248 -191 249 -90 -1 c-84 -1 -118 -8 -421 -95z"/>
<path d="M1695 8686 c-60 -28 -87 -56 -114 -116 -42 -91 -20 -193 56 -261 52
-47 100 -62 176 -57 116 8 198 90 205 206 6 82 -16 138 -72 190 -71 66 -163
80 -251 38z"/>
<path d="M8834 8686 c-148 -69 -181 -260 -64 -373 48 -47 106 -66 182 -61 84
5 145 45 182 120 50 100 29 210 -54 281 -73 62 -159 74 -246 33z"/>
<path d="M6563 7340 c-91 -32 -172 -82 -239 -144 l-64 -61 13 -60 c8 -39 27
-82 55 -122 l41 -61 70 -13 c38 -6 75 -15 81 -19 6 -4 20 -86 31 -188 l20
-181 77 -130 c42 -72 79 -131 83 -131 16 0 128 264 176 414 29 93 55 171 57
173 2 3 42 -40 88 -95 l83 -100 3 245 2 245 -31 56 c-46 82 -99 152 -114 152
-7 0 -29 -22 -49 -50 -43 -60 -70 -65 -115 -19 -26 26 -188 110 -209 108 -4 0
-31 -9 -59 -19z"/>
<path d="M5465 6754 c-368 -90 -791 -193 -940 -230 l-270 -65 -29 -72 c-16
-40 -42 -84 -57 -99 -27 -27 -27 -29 -15 -81 10 -42 53 -112 213 -347 l200
-295 67 -350 c37 -192 68 -350 69 -351 12 -8 1015 -675 1284 -853 l351 -232
414 162 c227 89 420 165 428 169 12 7 22 55 40 202 l23 193 64 74 c53 60 63
78 59 100 -3 14 -8 44 -12 66 -3 22 -22 75 -42 118 l-36 78 32 65 c33 67 38
101 26 201 -6 44 -16 63 -73 135 l-67 83 -34 198 -33 198 158 159 158 158 -76
119 c-42 65 -98 151 -125 191 l-49 73 -18 -66 c-10 -36 -22 -68 -26 -70 -4 -3
-15 17 -25 45 -11 32 -36 67 -69 100 l-51 51 -56 -118 c-31 -65 -80 -178 -109
-250 l-54 -132 -45 -6 c-25 -3 -59 -8 -75 -10 -30 -5 -32 -2 -130 162 -54 93
-101 172 -104 177 -2 6 -12 82 -20 169 l-16 160 -64 13 c-74 15 -108 42 -153
122 -16 28 -33 51 -36 51 -4 -1 -308 -75 -677 -165z"/>
<path d="M10207 6786 c-3 -8 -1 -31 4 -51 20 -71 -1 -77 -106 -28 -28 13 -69
23 -93 23 -37 0 -50 -6 -77 -33 -82 -82 -33 -207 80 -207 20 0 25 5 25 25 0
19 -7 26 -27 31 -61 15 -84 72 -43 109 30 28 68 21 191 -33 61 -28 118 -48
127 -45 19 8 12 84 -15 163 -13 41 -23 56 -39 58 -12 2 -24 -4 -27 -12z"/>
<path d="M527 6748 c-8 -13 -25 -67 -37 -121 -22 -91 -22 -99 -7 -115 25 -24
40 -3 62 83 19 74 38 105 64 105 35 0 46 -18 46 -77 0 -52 2 -58 21 -61 18 -3
24 5 35 39 16 49 36 64 72 55 37 -9 41 -35 16 -126 -22 -82 -21 -110 4 -110
24 0 35 22 64 132 27 102 27 107 10 126 -10 11 -28 22 -40 25 -12 2 -74 19
-138 36 -139 37 -154 38 -172 9z"/>
<path d="M3429 6479 l-80 -161 31 -347 c17 -190 33 -356 35 -367 3 -12 94
-115 202 -229 l198 -207 145 -72 145 -73 120 72 120 71 47 177 47 177 -172
262 c-266 406 -239 353 -251 482 l-11 112 -148 132 -148 132 -99 0 -100 0 -81
-161z"/>
<path d="M10295 6460 c-4 -6 -4 -33 0 -59 4 -32 3 -51 -5 -56 -6 -4 -45 9 -87
29 -96 46 -149 48 -194 8 -62 -55 -47 -167 26 -198 52 -21 75 -18 75 10 0 19
-8 27 -35 36 -61 20 -72 82 -20 116 31 20 60 11 188 -57 51 -27 100 -49 109
-49 25 0 31 33 18 98 -23 114 -30 132 -50 132 -10 0 -22 -5 -25 -10z"/>
<path d="M470 6398 c-132 -67 -115 -277 24 -304 44 -8 92 14 167 76 34 28 69
50 78 48 20 -4 28 -48 9 -49 -7 -1 -22 -2 -33 -3 -33 -2 -27 -47 8 -59 79 -26
129 99 60 153 -40 31 -64 25 -147 -40 -43 -32 -86 -62 -97 -65 -11 -4 -36 2
-57 12 -28 14 -39 26 -46 53 -12 49 12 101 54 122 46 22 81 11 103 -35 20 -41
52 -50 62 -17 12 37 -36 101 -85 115 -14 3 -32 8 -40 11 -9 2 -36 -6 -60 -18z"/>
<path d="M10207 6099 c-151 -23 -224 -134 -146 -224 38 -43 93 -59 176 -52
169 16 257 149 157 236 -18 17 -51 33 -71 36 -21 3 -45 7 -53 9 -8 1 -36 -1
-63 -5z m106 -60 c46 -12 71 -46 61 -84 -16 -64 -197 -102 -258 -54 -22 17
-26 28 -24 57 2 29 10 40 36 55 60 35 122 44 185 26z"/>
<path d="M702 5988 c-7 -7 -12 -22 -12 -35 0 -12 -5 -34 -12 -48 -14 -30 -35
-31 -183 -10 -128 19 -142 19 -149 -2 -12 -29 16 -41 144 -58 170 -23 175 -25
175 -100 0 -55 2 -60 22 -63 31 -5 39 20 53 164 7 65 13 121 16 123 2 2 -1 12
-7 22 -11 22 -30 24 -47 7z"/>
<path d="M10403 5748 c-4 -7 -8 -33 -8 -58 0 -59 -16 -61 -91 -10 -100 68
-164 72 -218 12 -23 -26 -32 -97 -17 -135 11 -29 92 -74 111 -62 21 13 9 44
-25 64 -20 11 -38 28 -42 36 -9 24 13 64 42 77 33 15 62 1 177 -81 47 -34 93
-61 102 -61 9 0 20 10 25 23 9 24 -1 176 -13 195 -9 16 -33 15 -43 0z"/>
<path d="M607 5343 c-17 -16 -4 -43 28 -62 50 -29 44 -90 -11 -111 -33 -13
-65 4 -173 91 -47 38 -94 69 -103 69 -24 0 -29 -29 -26 -135 3 -89 3 -90 28
-90 23 0 25 4 28 47 5 69 20 76 77 32 79 -60 108 -74 152 -74 80 0 136 80 110
157 -16 47 -89 98 -110 76z"/>
<path d="M10100 5160 c-19 -11 -37 -294 -20 -315 22 -26 47 -6 53 42 8 76 14
78 179 66 135 -11 168 -8 168 16 -1 26 -26 33 -165 45 -170 15 -181 20 -171
93 4 34 2 44 -12 52 -10 5 -24 6 -32 1z"/>
<path d="M436 5002 c-93 -33 -136 -126 -88 -191 63 -84 244 -95 335 -20 67 55
70 125 9 181 -54 50 -163 63 -256 30z m188 -52 c14 -5 32 -20 41 -34 38 -57
-34 -116 -141 -116 -81 0 -119 14 -134 50 -16 39 0 67 53 91 46 20 139 25 181
9z"/>
<path d="M3950 4792 c0 -20 89 -554 93 -558 2 -3 82 -36 176 -74 l172 -69 -5
52 c-3 29 -10 135 -16 237 -6 102 -13 208 -16 236 l-5 52 -187 62 c-103 35
-193 65 -199 68 -7 2 -13 0 -13 -6z"/>
<path d="M10282 4753 c-13 -2 -54 -34 -92 -70 -72 -67 -102 -77 -108 -35 -3
18 1 22 26 22 18 0 32 6 36 16 18 48 -69 62 -104 17 -28 -35 -22 -99 10 -125
40 -32 73 -23 147 40 92 79 106 86 149 72 57 -19 79 -82 49 -140 -36 -70 -122
-71 -150 -3 -19 44 -49 42 -53 -4 -5 -47 41 -94 101 -103 98 -15 167 54 167
168 0 99 -81 166 -178 145z"/>
<path d="M640 4647 c0 -19 9 -30 38 -44 56 -27 58 -90 2 -113 -37 -15 -55 -9
-177 66 -94 57 -128 66 -136 35 -7 -27 19 -191 32 -204 8 -8 16 -9 29 -1 13 8
17 25 17 65 0 49 2 54 21 52 12 -1 44 -16 72 -33 85 -53 148 -56 198 -9 73 68
36 184 -63 204 -30 6 -33 4 -33 -18z"/>
<path d="M10023 4398 c-6 -7 -20 -62 -33 -122 -22 -105 -22 -109 -4 -126 12
-12 64 -28 140 -44 196 -41 218 -38 229 33 4 20 13 68 22 108 16 77 13 93 -17
93 -25 0 -27 -5 -45 -91 -19 -89 -42 -118 -80 -101 -22 10 -25 17 -25 66 0 47
-3 56 -21 61 -24 8 -39 -8 -39 -42 0 -26 -32 -63 -54 -63 -8 0 -24 8 -36 18
l-22 18 17 87 c9 48 15 94 11 102 -7 18 -30 20 -43 3z"/>
<path d="M690 4317 c0 -20 6 -27 30 -32 84 -18 71 -125 -15 -125 -14 0 -75 25
-135 55 -60 30 -117 55 -125 55 -26 0 -29 -30 -11 -119 19 -93 32 -116 60
-105 15 6 17 15 11 60 -9 71 3 75 98 30 107 -51 164 -46 208 20 48 73 7 170
-78 181 -41 5 -43 4 -43 -20z"/>
<path d="M6838 3832 l-378 -157 0 -71 0 -72 90 -108 c87 -105 93 -110 163
-136 70 -26 78 -27 294 -27 l222 -1 65 78 66 77 0 195 0 195 -65 93 c-36 50
-69 92 -73 91 -4 0 -177 -71 -384 -157z"/>
<path d="M4743 3764 c16 -26 377 -868 373 -871 -2 -2 -122 55 -267 128 l-264
132 -394 74 c-231 43 -398 70 -405 65 -6 -5 -80 -60 -164 -122 -124 -91 -151
-115 -140 -125 57 -52 1241 -1037 1251 -1040 7 -2 119 152 272 376 l260 379
233 191 c127 104 232 193 232 197 0 13 -133 407 -140 415 -4 4 -189 51 -411
103 -222 52 -412 97 -423 100 -10 4 -16 2 -13 -2z"/>
<path d="M9334 3265 c-28 -43 -13 -66 80 -118 115 -64 148 -93 144 -126 -3
-22 -13 -29 -78 -53 -41 -15 -127 -39 -190 -53 -140 -31 -157 -38 -172 -69
-15 -34 8 -69 65 -97 23 -12 83 -45 132 -74 50 -29 155 -87 234 -130 l145 -78
23 28 c47 54 26 76 -170 180 -107 57 -129 78 -120 116 3 10 12 24 21 32 31 28
177 78 257 88 71 9 86 8 149 -12 l69 -22 19 23 c12 14 18 35 16 53 -3 26 -13
35 -73 67 -38 20 -115 61 -170 90 -55 29 -136 74 -180 100 -152 91 -174 96
-201 55z"/>
<path d="M1225 3084 c-44 -7 -147 -25 -230 -40 -82 -14 -156 -31 -163 -38 -14
-14 -3 -58 18 -71 6 -4 42 -1 81 6 65 12 72 11 97 -8 31 -23 47 -64 57 -145 7
-56 7 -57 -34 -101 -46 -50 -49 -65 -22 -98 16 -20 23 -22 43 -14 30 12 272
266 338 355 75 98 77 105 53 138 -18 24 -26 27 -89 29 -38 0 -105 -5 -149 -13z
m85 -116 c0 -25 -107 -138 -131 -138 -35 0 -48 112 -16 139 16 13 97 28 125
23 14 -3 22 -12 22 -24z"/>
<path d="M9086 2538 c-61 -16 -131 -92 -152 -164 -38 -132 14 -254 147 -345
75 -51 136 -65 209 -50 73 15 112 40 154 98 167 230 -71 536 -358 461z m205
-114 c59 -33 85 -62 99 -114 28 -104 3 -181 -70 -217 -68 -35 -123 -31 -190
15 -101 68 -138 178 -91 270 43 85 146 103 252 46z"/>
<path d="M1675 2376 c-71 -23 -122 -54 -165 -103 -78 -89 -98 -155 -79 -256
11 -53 20 -70 62 -114 54 -57 99 -77 165 -71 35 3 37 5 37 37 0 38 -11 47 -67
56 -45 7 -91 43 -108 86 -28 67 32 196 115 244 98 57 182 56 246 -4 31 -30 39
-45 39 -74 0 -39 -21 -67 -49 -67 -28 0 -44 -25 -32 -48 23 -42 78 -43 126 -1
102 90 39 262 -113 309 -73 23 -119 24 -177 6z"/>
<path d="M8707 2132 c-10 -10 -17 -25 -17 -33 0 -16 85 -101 194 -195 39 -32
103 -89 143 -126 40 -38 82 -68 92 -68 19 0 51 34 51 55 0 5 -59 64 -132 130
-72 66 -164 150 -204 188 -76 70 -100 79 -127 49z"/>
<path d="M1925 1853 c-107 -103 -197 -195 -200 -204 -17 -51 41 -76 83 -35 40
38 84 50 127 36 19 -6 40 -20 45 -30 16 -29 12 -85 -10 -142 -11 -29 -20 -63
-20 -74 0 -28 23 -46 52 -42 18 2 29 19 55 87 18 46 40 92 49 102 9 10 42 26
73 35 31 8 71 27 90 41 42 32 91 109 91 143 0 52 -31 116 -86 178 -58 65 -98
92 -134 92 -13 0 -90 -67 -215 -187z m278 37 c65 -57 71 -113 19 -171 -23 -25
-38 -33 -79 -36 -29 -3 -59 0 -72 7 -26 13 -61 67 -61 92 0 35 111 138 147
138 7 0 28 -13 46 -30z"/>
<path d="M8444 1895 c-41 -32 -66 -93 -55 -133 27 -91 40 -97 240 -97 l163 0
34 -39 c27 -31 34 -48 34 -81 0 -77 -65 -145 -147 -152 -55 -4 -86 9 -117 50
-18 25 -19 32 -8 84 11 53 10 59 -8 77 -17 17 -22 18 -44 6 -57 -30 -62 -162
-10 -227 50 -61 78 -77 148 -81 53 -4 74 0 123 23 66 29 128 93 144 148 23 82
0 186 -52 234 -52 48 -93 56 -239 49 -74 -4 -143 -4 -153 -1 -20 8 -23 45 -5
63 18 18 42 15 56 -8 17 -27 48 -25 67 4 15 22 15 27 1 55 -21 39 -44 51 -98
51 -30 0 -52 -7 -74 -25z"/>
<path d="M2470 1643 c-14 -8 -52 -49 -85 -90 -33 -41 -90 -112 -127 -156 -113
-137 -118 -164 -41 -225 217 -176 241 -190 271 -160 28 28 12 53 -87 135 -105
86 -117 107 -94 155 24 50 54 47 151 -13 30 -20 34 -20 57 -5 37 24 31 45 -25
97 -56 52 -63 80 -29 123 40 50 88 32 224 -83 63 -55 98 -64 115 -31 17 32 4
55 -63 109 -34 27 -93 74 -131 105 -72 59 -95 66 -136 39z"/>
<path d="M8019 1527 c-73 -48 -86 -136 -30 -196 30 -32 39 -34 210 -49 126
-11 152 -23 185 -83 24 -44 16 -96 -21 -140 -67 -79 -197 -78 -238 1 -19 38
-19 61 2 105 21 44 9 70 -32 70 -46 0 -70 -43 -70 -125 0 -60 4 -74 30 -112
78 -110 230 -119 351 -21 96 78 111 235 31 321 -47 51 -93 65 -236 71 -112 6
-135 9 -146 25 -14 18 -10 45 9 58 21 15 43 8 54 -17 13 -29 43 -33 66 -9 24
24 19 58 -13 93 -24 26 -37 31 -74 31 -29 0 -55 -8 -78 -23z"/>
<path d="M2999 1258 c-146 -106 -409 -335 -409 -358 0 -45 63 -54 101 -14 42
44 86 66 119 59 33 -7 127 -105 137 -143 3 -12 0 -43 -6 -67 -8 -31 -8 -52 -1
-64 13 -25 59 -36 75 -19 24 26 112 436 117 541 2 58 0 71 -17 83 -30 22 -69
16 -116 -18z m25 -146 c4 -10 -2 -54 -12 -98 -14 -57 -24 -80 -36 -82 -34 -7
-93 71 -81 108 8 27 82 90 104 90 11 0 22 -8 25 -18z"/>
<path d="M7600 1194 c-74 -41 -143 -85 -152 -96 -36 -41 -30 -55 166 -398 61
-108 87 -119 168 -72 268 155 249 142 246 175 -2 16 -11 35 -21 41 -18 12 -50
-2 -166 -72 -90 -54 -129 -54 -157 -1 -21 41 -11 63 44 101 69 47 76 64 42 98
l-20 20 -60 -30 c-33 -16 -66 -30 -73 -30 -28 0 -67 51 -67 86 0 30 6 38 53
68 28 19 84 52 122 73 52 29 71 45 73 63 4 25 -20 50 -47 50 -9 0 -77 -34
-151 -76z"/>
<path d="M3283 1113 c-7 -2 -13 -19 -13 -37 0 -28 6 -36 38 -52 54 -27 92 -64
92 -90 0 -12 -43 -109 -96 -215 -52 -105 -93 -198 -90 -206 8 -19 48 -32 68
-22 10 5 58 90 109 189 88 173 121 220 159 220 9 0 39 -11 66 -25 60 -30 85
-31 102 -4 26 41 7 56 -194 154 -184 90 -212 100 -241 88z"/>
<path d="M7088 966 c-148 -53 -166 -79 -126 -178 91 -221 149 -359 167 -400
26 -56 54 -69 84 -40 20 20 20 22 3 66 -15 38 -16 52 -6 81 15 46 46 75 80 75
29 0 101 -44 139 -84 14 -14 35 -26 47 -26 24 0 54 24 54 43 0 6 -34 44 -75
83 l-75 71 0 91 c0 78 -3 96 -27 142 -37 70 -66 91 -139 96 -46 4 -74 -1 -126
-20z m151 -92 c75 -63 50 -200 -41 -218 -56 -11 -76 2 -109 69 -43 88 -38 123
21 153 58 29 91 28 129 -4z"/>
<path d="M3842 878 c-26 -33 -206 -514 -198 -533 14 -37 80 -35 92 3 7 20 90
237 145 376 45 114 47 129 17 150 -27 19 -42 20 -56 4z"/>
<path d="M4022 798 c-12 -16 -22 -481 -12 -541 5 -24 17 -49 30 -59 29 -24
101 -24 128 -1 18 16 176 250 271 400 39 62 38 93 -2 104 -35 9 -33 11 -137
-146 -84 -127 -132 -185 -154 -185 -35 0 -41 30 -44 224 -2 111 -8 196 -14
204 -6 6 -21 12 -33 12 -12 0 -27 -6 -33 -12z"/>
<path d="M6575 782 c-106 -33 -113 -36 -126 -68 -10 -27 -2 -59 70 -295 22
-74 48 -160 56 -192 17 -61 30 -73 69 -63 30 7 38 28 25 65 -18 50 4 92 97
188 96 100 114 132 114 200 0 71 -18 123 -55 160 -31 31 -38 33 -96 32 -40 0
-99 -11 -154 -27z m169 -62 c29 -11 51 -75 42 -124 -8 -41 -56 -99 -101 -120
-53 -26 -84 -7 -107 64 -25 82 -23 107 13 141 45 42 105 58 153 39z"/>
<path d="M6246 678 c-8 -13 -26 -52 -41 -88 -28 -67 -50 -100 -69 -100 -6 0
-45 36 -87 80 -42 44 -83 80 -91 80 -8 0 -22 -6 -33 -13 -28 -21 -14 -52 70
-152 100 -120 105 -137 66 -242 -17 -45 -39 -100 -51 -122 -24 -48 -25 -64 -5
-81 12 -10 21 -10 44 -1 30 13 31 15 85 134 26 57 40 77 54 77 11 0 50 -34 93
-80 76 -81 108 -97 137 -68 22 22 13 39 -67 125 -44 47 -87 100 -97 119 -17
32 -17 37 -2 91 9 32 30 94 47 138 38 98 37 119 -6 123 -24 2 -35 -2 -47 -20z"/>
<path d="M4585 638 c-28 -25 -27 -20 -70 -310 -14 -92 -23 -179 -19 -193 10
-39 40 -53 139 -65 50 -5 117 -14 150 -20 84 -14 93 -13 110 14 19 29 11 51
-23 64 -30 11 -160 32 -196 32 -41 0 -76 36 -76 79 0 53 13 61 102 61 74 0 78
1 84 24 12 49 3 59 -65 72 -72 13 -91 30 -91 81 0 41 30 73 68 73 15 0 77 -7
139 -16 92 -14 115 -15 128 -4 22 18 19 57 -6 70 -17 10 -299 60 -336 60 -7 0
-24 -10 -38 -22z"/>
<path d="M5490 593 c-103 -10 -105 -14 -100 -218 2 -88 4 -176 6 -195 1 -19 3
-54 3 -78 1 -32 7 -49 26 -68 l25 -25 162 7 c177 7 208 16 208 59 0 38 -26 45
-157 39 -110 -5 -120 -4 -146 16 -20 16 -27 30 -27 55 0 43 18 56 98 69 l67
11 0 40 0 40 -71 3 c-54 2 -76 7 -88 21 -22 24 -24 88 -3 108 18 19 109 32
223 32 40 1 75 6 82 13 17 17 15 42 -6 61 -15 14 -40 17 -143 15 -68 0 -140
-3 -159 -5z"/>
</g>
</svg>
